<?xml version="1.0" standalone="no"?>
<!DOCTYPE svg PUBLIC "-//W3C//DTD SVG 20010904//EN"
 "http://www.w3.org/TR/2001/REC-SVG-20010904/DTD/svg10.dtd">
<svg version="1.0" xmlns="http://www.w3.org/2000/svg"
 width="56.000000pt" height="56.000000pt" viewBox="0 0 56.000000 56.000000"
 preserveAspectRatio="xMidYMid meet">

<g transform="translate(0.000000,56.000000) scale(0.100000,-0.100000)"
fill="#000000" stroke="none">
<path d="M0 280 l0 -280 108 0 c65 0 102 4 93 9 -9 6 -11 18 -7 35 6 24 7 25
24 8 10 -9 17 -22 15 -28 -3 -7 1 -15 7 -19 12 -8 51 35 46 51 -2 6 16 22 40
37 24 15 44 24 44 21 0 -20 -38 -64 -55 -65 -11 0 -15 -3 -9 -5 7 -3 10 -14 7
-24 -5 -19 1 -20 121 -20 l126 0 0 280 0 280 -280 0 -280 0 0 -280z m300 127
l55 -3 1 -52 1 -52 -53 0 c-47 0 -54 -2 -54 -20 0 -17 10 -23 40 -22 3 0 24 3
48 7 l42 7 -12 -29 c-18 -43 -40 -65 -60 -60 -10 3 -21 1 -24 -4 -3 -5 -14 -9
-25 -9 -10 0 -18 -6 -16 -12 1 -8 -8 -12 -26 -11 -15 1 -25 -2 -22 -8 10 -15
48 -10 83 11 35 22 38 20 20 -13 -16 -31 -39 -46 -69 -47 -30 0 -41 11 -58 59
-10 31 -4 63 6 34 8 -23 87 -12 97 12 4 10 -2 11 -27 4 -45 -13 -57 -11 -57 7
0 10 -6 13 -19 9 -22 -7 -30 16 -20 60 4 17 7 25 8 18 0 -7 11 -17 22 -24 17
-9 24 -8 36 4 13 13 11 17 -19 37 -18 13 -34 24 -35 25 -1 0 3 19 9 42 9 39
12 41 42 37 17 -2 56 -6 86 -7z m150 -123 c0 -18 -40 -88 -46 -81 -2 2 1 19 7
38 6 19 12 40 15 47 5 18 24 15 24 -4z"/>
</g>
</svg>
